# xmcd
#
# Track frame offsets: 
#        150
#        15037
#        35362
#        54257
#        78922
#        95922
#        120132
#        140800
#        159762
#        173045
#
# Disc length: 2569 seconds
#
# Revision: 0
# Processed by: cddbd v1.5.2PL0 Copyright (c) Steve Scherf et al.
# Submitted via: ExactAudioCopyFreeDBPlugin 1.0
#
DISCID=670a070a
DTITLE=คอรัสเพื่อชีวิต แผ่น 1 - รวมศิลปิน
DYEAR=1900
DGENRE=Country
TTITLE0=มนต์เพลงคาราบาว
TTITLE1=มะโหนก
TTITLE2=แม่สาย
TTITLE3=หนุ่มลำมูล
TTITLE4=ถึกควายทุย ภาค 1
TTITLE5=เสียงเพลงแห่งเสรีภาพ
TTITLE6=ค ควายเขาเดียว
TTITLE7=ทะเลใจ
TTITLE8=ถึกควายทุย ภาค 9
TTITLE9=หนุ่มสุพรรณ  2
EXTD=
EXTT0=
EXTT1=
EXTT2=
EXTT3=
EXTT4=
EXTT5=
EXTT6=
EXTT7=
EXTT8=
EXTT9=
PLAYORDER=
